<svg width="136" height="136" viewBox="0 0 136 136" fill="none" xmlns="http://www.w3.org/2000/svg">
<path d="M120.134 61.54L113.447 68.2267L120.134 74.8L126.82 68.2267L120.134 61.54Z" fill="#D72526"/>
<path d="M16.5467 61.3134L9.86011 67.8867L16.5467 74.6867L23.3469 68.2267L16.5467 61.3134Z" fill="#D72526"/>
<path fill-rule="evenodd" clip-rule="evenodd" d="M68.3616 97.6256L81.5044 110.768L68.3616 123.911L55.2189 110.768L68.3616 97.6256ZM63.2328 110.768L68.3616 115.897L73.4905 110.768L68.3616 105.639L63.2328 110.768Z" fill="#D72526"/>
<path fill-rule="evenodd" clip-rule="evenodd" d="M51.0987 27.8171L67.2212 43.9396L67.079 57.7369L56.9746 67.9708L50.3607 71.9667H37.986L31.7394 67.9412L21.2426 57.4443L34.8283 44.035L44.2433 53.6019L39.3967 58.3716L34.7583 53.6585L30.8907 57.4758L36.0339 62.619L39.9873 65.1667H48.466L52.732 62.5894L60.3077 54.9165L60.3921 46.7272L51.1279 37.463L46.5936 42.0527L50.8179 46.3499L45.9687 51.1169L37.0464 42.0408L51.0987 27.8171Z" fill="#D72526"/>
<path fill-rule="evenodd" clip-rule="evenodd" d="M84.6493 27.8208L98.6484 41.8199L89.8976 50.5708L85.0892 45.7624L89.0317 41.8199L84.6709 37.4591L75.4801 46.7327V54.8049L83.1342 62.4591L87.5005 65.0433L96.1804 64.9499L100.013 62.685L104.996 57.7022L101.015 53.7722L96.4904 58.3711L91.6431 53.6021L100.945 44.1477L114.644 57.671L104.213 68.1016L98.0731 71.73L85.6729 71.8633L78.9325 67.8741L68.6801 57.6216V43.9339L84.6493 27.8208Z" fill="#D72526"/>
<path fill-rule="evenodd" clip-rule="evenodd" d="M85.4484 64.1467H98.0331L104.149 68.1779L114.678 78.5539L100.93 91.9495L91.5301 82.3983L96.3767 77.6285L101.03 82.3573L104.962 78.5262L99.8508 73.4889L95.9937 70.9467H87.2717L83.3388 73.2191L75.4801 80.9808V88.936L84.8095 98.432L89.2231 94.0722L84.8828 89.8043L89.6506 84.9558L98.9104 94.0612L84.7373 108.061L68.6801 91.7175V78.1394L79.1813 67.7677L85.4484 64.1467Z" fill="#D72526"/>
<path fill-rule="evenodd" clip-rule="evenodd" d="M37.5703 64.3634L50.5339 64.4957L57.0319 68.0903L67.3345 78.393L67.1922 92.2029L51.2562 108.139L37.0952 94.3233L45.7625 85.6559L50.5708 90.4642L46.7715 94.2635L51.1972 98.5812L60.4212 89.3573L60.5055 81.1805L52.9014 73.5765L48.7461 71.2778L39.4964 71.1834L35.7929 73.5088L30.8906 78.4112L34.8912 82.3605L39.5292 77.7226L44.3375 82.5309L34.9221 91.9463L21.2428 78.4423L31.5271 68.158L37.5703 64.3634Z" fill="#D72526"/>
<path fill-rule="evenodd" clip-rule="evenodd" d="M68.2951 13.1594L81.4378 26.3022L68.2951 39.4449L55.1523 26.3022L68.2951 13.1594ZM63.1662 26.3022L68.2951 31.431L73.424 26.3022L68.2951 21.1733L63.1662 26.3022Z" fill="#D72526"/>
<path fill-rule="evenodd" clip-rule="evenodd" d="M68 4.30667C32.8231 4.30667 4.30667 32.8231 4.30667 68C4.30667 103.177 32.8231 131.693 68 131.693C103.177 131.693 131.693 103.177 131.693 68C131.693 32.8231 103.177 4.30667 68 4.30667ZM0 68C0 30.4446 30.4446 0 68 0C105.555 0 136 30.4446 136 68C136 105.555 105.555 136 68 136C30.4446 136 0 105.555 0 68Z" fill="#D72526"/>
</svg>
