<svg preserveAspectRatio="none" width="4527" height="725" viewBox="0 0 4527 725" fill="none" xmlns="http://www.w3.org/2000/svg">
    <path d="M151 5.99998H413C475.667 5.99998 527.333 18.3333 568 43C608.667 67.6667 639 101 659 143C679 184.333 689 231 689 283C689 345.667 678.333 403.333 657 456C635.667 508.667 605.667 554.667 567 594C528.333 632.667 483 662.667 431 684C379 705.333 322.667 716 262 716H0L151 5.99998ZM298 546C335.333 546 368.333 535.333 397 514C425.667 492 448 463 464 427C480 391 488 352.333 488 311C488 270.333 478.333 237.667 459 213C440.333 188.333 413 176 377 176H310L231 546H298Z" fill="url(#paint0_radial)"/>
    <path d="M844.359 5.99998H1318.36L1282.36 176H1003.36L982.359 276H1220.36L1186.36 434H948.359L924.359 546H1212.36L1176.36 716H693.359L844.359 5.99998Z" fill="url(#paint1_radial)"/>
    <path d="M1516.55 725C1467.89 725 1418.22 717.333 1367.55 702C1316.89 686.667 1273.89 666.667 1238.55 642L1358.55 471C1358.55 472.333 1364.22 477 1375.55 485C1386.89 493 1401.89 502 1420.55 512C1439.22 522 1460.22 530.667 1483.55 538C1506.89 545.333 1531.22 549 1556.55 549C1579.22 549 1593.55 545.333 1599.55 538C1605.55 530 1608.55 521.333 1608.55 512C1608.55 500 1602.22 490.333 1589.55 483C1576.89 475 1560.55 468 1540.55 462C1521.22 455.333 1500.55 447.667 1478.55 439C1434.55 421.667 1401.55 400.667 1379.55 376C1358.22 351.333 1347.55 320 1347.55 282C1347.55 237.333 1356.22 197.667 1373.55 163C1391.55 127.667 1415.55 98 1445.55 74C1475.55 50 1508.89 31.6667 1545.55 19C1582.22 6.33333 1619.55 0 1657.55 0C1690.89 0 1722.22 4.33334 1751.55 13C1780.89 21 1807.89 31 1832.55 43C1857.22 55 1878.55 66.3333 1896.55 77L1778.55 238C1778.55 236.667 1773.55 232.667 1763.55 226C1754.22 219.333 1741.55 212 1725.55 204C1709.55 196 1691.89 189 1672.55 183C1653.22 176.333 1633.89 173 1614.55 173C1599.89 173 1587.22 176.333 1576.55 183C1566.55 189.667 1561.55 200.333 1561.55 215C1561.55 230.333 1571.22 242 1590.55 250C1610.55 258 1636.22 267.667 1667.55 279C1699.55 291 1727.55 304.333 1751.55 319C1776.22 333 1795.22 350.667 1808.55 372C1821.89 393.333 1828.55 420.667 1828.55 454C1828.55 504.667 1819.22 547.333 1800.55 582C1781.89 616.667 1757.22 644.667 1726.55 666C1695.89 686.667 1662.22 701.667 1625.55 711C1588.89 720.333 1552.55 725 1516.55 725Z" fill="url(#paint2_radial)"/>
    <path d="M2121.26 176H1930.26L1966.26 5.99998H2542.26L2506.26 176H2316.26L2201.26 716H2006.26L2121.26 176Z" fill="url(#paint3_radial)"/>
    <path d="M2463.87 716L2614.87 5.99998H2926.87C2965.53 5.99998 2998.2 16 3024.87 36C3052.2 55.3333 3072.87 80.6667 3086.87 112C3101.53 143.333 3108.87 176.333 3108.87 211C3108.87 257.667 3095.87 303 3069.87 347C3044.53 391 3010.53 427 2967.87 455L3052.87 716H2832.87L2763.87 498H2704.87L2658.87 716H2463.87ZM2849.87 328C2857.2 328 2865.2 324 2873.87 316C2883.2 307.333 2891.2 295.667 2897.87 281C2904.53 266.333 2907.87 249.667 2907.87 231C2907.87 213.667 2904.53 200.333 2897.87 191C2891.87 181 2884.87 176 2876.87 176H2773.87L2741.87 328H2849.87Z" fill="url(#paint4_radial)"/>
    <path d="M3414.4 722C3370.4 722 3331.07 714 3296.4 698C3262.4 681.333 3233.73 659 3210.4 631C3187.07 603 3169.4 571.333 3157.4 536C3145.4 500 3139.4 462.667 3139.4 424C3139.4 370 3150.73 318 3173.4 268C3196.73 217.333 3228.4 172 3268.4 132C3309.07 92 3355.4 60.3333 3407.4 37C3459.4 13.6666 3514.07 1.99997 3571.4 1.99997C3615.4 1.99997 3654.4 10.3333 3688.4 27C3722.4 43 3751.07 65 3774.4 93C3797.73 121 3815.07 153 3826.4 189C3838.4 224.333 3844.4 261.333 3844.4 300C3844.4 353.333 3832.73 405.333 3809.4 456C3786.73 506 3755.4 551 3715.4 591C3675.4 631 3629.4 663 3577.4 687C3526.07 710.333 3471.73 722 3414.4 722ZM3452.4 549C3484.4 549 3512.4 541.667 3536.4 527C3560.4 512.333 3580.4 493.333 3596.4 470C3613.07 446 3625.4 420.333 3633.4 393C3641.4 365.667 3645.4 339 3645.4 313C3645.4 288.333 3641.4 265.667 3633.4 245C3626.07 223.667 3614.07 206.667 3597.4 194C3580.73 181.333 3558.73 175 3531.4 175C3500.07 175 3472.4 182.333 3448.4 197C3424.4 211 3404.4 229.667 3388.4 253C3372.4 276.333 3360.07 301.667 3351.4 329C3343.4 356.333 3339.4 383 3339.4 409C3339.4 433.667 3343.07 456.667 3350.4 478C3358.4 499.333 3370.73 516.667 3387.4 530C3404.07 542.667 3425.73 549 3452.4 549Z" fill="url(#paint5_radial)"/>
    <path d="M4001.78 479L3875.78 5.99998H4086.78L4133.78 313L4314.78 5.99998H4526.78L4194.78 481L4144.78 716H3950.78L4001.78 479Z" fill="url(#paint6_radial)"/>
    <defs>
        <radialGradient id="paint0_radial" cx="0" cy="0" r="1" gradientUnits="userSpaceOnUse" gradientTransform="translate(2217 363) rotate(90) scale(993 3140.72)">
            <stop stop-color="#F81C1C"/>
            <stop offset="1" stop-color="#F8AD1C"/>
        </radialGradient>
        <radialGradient id="paint1_radial" cx="0" cy="0" r="1" gradientUnits="userSpaceOnUse" gradientTransform="translate(2217 363) rotate(90) scale(993 3140.72)">
            <stop stop-color="#F81C1C"/>
            <stop offset="1" stop-color="#F8AD1C"/>
        </radialGradient>
        <radialGradient id="paint2_radial" cx="0" cy="0" r="1" gradientUnits="userSpaceOnUse" gradientTransform="translate(2217 363) rotate(90) scale(993 3140.72)">
            <stop stop-color="#F81C1C"/>
            <stop offset="1" stop-color="#F8AD1C"/>
        </radialGradient>
        <radialGradient id="paint3_radial" cx="0" cy="0" r="1" gradientUnits="userSpaceOnUse" gradientTransform="translate(2217 363) rotate(90) scale(993 3140.72)">
            <stop stop-color="#F81C1C"/>
            <stop offset="1" stop-color="#F8AD1C"/>
        </radialGradient>
        <radialGradient id="paint4_radial" cx="0" cy="0" r="1" gradientUnits="userSpaceOnUse" gradientTransform="translate(2217 363) rotate(90) scale(993 3140.72)">
            <stop stop-color="#F81C1C"/>
            <stop offset="1" stop-color="#F8AD1C"/>
        </radialGradient>
        <radialGradient id="paint5_radial" cx="0" cy="0" r="1" gradientUnits="userSpaceOnUse" gradientTransform="translate(2217 363) rotate(90) scale(993 3140.72)">
            <stop stop-color="#F81C1C"/>
            <stop offset="1" stop-color="#F8AD1C"/>
        </radialGradient>
        <radialGradient id="paint6_radial" cx="0" cy="0" r="1" gradientUnits="userSpaceOnUse" gradientTransform="translate(2217 363) rotate(90) scale(993 3140.72)">
            <stop stop-color="#F81C1C"/>
            <stop offset="1" stop-color="#F8AD1C"/>
        </radialGradient>
    </defs>
</svg>
