<svg width="477" height="112" viewBox="0 0 477 112" fill="none" xmlns="http://www.w3.org/2000/svg">
<g clip-path="url(#clip0)">
<path d="M200.824 91.7028C199.036 90.5797 197.472 90.1304 195.014 90.1304C191.439 90.1304 190.546 91.2535 190.546 92.3767C190.546 93.7246 191.662 93.9493 193.227 94.1739L197.696 94.6232C200.601 95.0725 202.388 96.1956 202.388 98.6667C202.388 101.812 199.483 103.159 195.238 103.159C192.333 103.159 190.323 102.71 188.088 101.138L188.982 99.5651C190.992 100.913 192.78 101.362 195.461 101.362C198.366 101.362 200.154 100.464 200.154 98.6667C200.154 97.3188 199.26 96.6449 197.472 96.4202L193.003 95.9709C190.323 95.7463 188.535 94.6232 188.535 92.1521C188.535 89.2318 191.439 88.1086 195.014 88.1086C197.472 88.1086 199.707 88.3334 201.718 89.9058L200.824 91.7028Z" fill="black"/>
<path d="M219.817 88.7832L225.85 103.16H223.839L222.945 100.914H212.444L211.55 103.16H209.316L215.573 88.7832H219.817ZM212.891 98.8918H221.828L218.478 90.5802H216.466L212.891 98.8918Z" fill="black"/>
<path d="M235.459 88.7832V101.138H245.96V103.16H233.448V88.7832H235.459Z" fill="black"/>
<path d="M260.26 103.383C255.791 103.383 252.439 100.463 252.439 95.9702C252.439 91.4775 255.791 88.5571 260.26 88.5571C264.729 88.5571 268.081 91.4775 268.081 95.9702C268.081 100.463 264.729 103.383 260.26 103.383ZM260.26 101.586C263.612 101.586 266.07 99.5643 266.07 95.9702C266.07 92.376 263.388 90.3543 260.26 90.3543C256.908 90.3543 254.45 92.376 254.45 95.9702C254.45 99.5643 257.132 101.586 260.26 101.586Z" fill="black"/>
<path d="M278.135 88.7832L288.415 100.464V88.7832H290.426V103.16H288.191L277.912 91.4788V103.16H275.901V88.7832H278.135Z" fill="black"/>
<path d="M323.942 91.7028C322.154 90.5797 320.59 90.1304 318.132 90.1304C314.558 90.1304 313.664 91.2535 313.664 92.3767C313.664 93.7246 314.781 93.9493 316.346 94.1739L320.813 94.6232C323.718 95.0725 325.506 96.1956 325.506 98.6667C325.506 101.812 322.601 103.159 318.355 103.159C315.452 103.159 313.441 102.71 311.206 101.138L312.1 99.5651C314.111 100.913 315.899 101.362 318.579 101.362C321.484 101.362 323.271 100.464 323.271 98.6667C323.271 97.3188 322.377 96.6449 320.59 96.4202L316.122 95.9709C313.441 95.7463 311.653 94.6232 311.653 92.1521C311.653 89.2318 314.558 88.1086 318.132 88.1086C320.59 88.1086 322.824 88.3334 324.836 89.9058L323.942 91.7028Z" fill="black"/>
<path d="M346.733 88.7832V90.5802H340.476V103.16H338.467V90.5802H332.21V88.7832H346.733Z" fill="black"/>
<path d="M355.894 88.7832V96.1962C355.894 99.5656 357.458 101.587 361.033 101.587C364.609 101.587 366.171 99.3411 366.171 96.1962V88.7832H368.406V96.1962C368.406 100.914 365.501 103.609 361.257 103.609C356.787 103.609 354.106 100.914 354.106 96.1962V88.7832H355.894Z" fill="black"/>
<path d="M383.154 88.7832C387.177 88.7832 390.752 91.4788 390.752 95.9714C390.752 100.464 387.177 103.16 383.154 103.16H376.227V88.7832H383.154ZM378.238 101.138H383.154C386.73 101.138 388.964 99.1163 388.964 95.7469C388.964 92.3773 386.73 90.3557 383.154 90.3557H378.238V101.138Z" fill="black"/>
<path d="M400.583 88.7832H398.571V103.16H400.583V88.7832Z" fill="black"/>
<path d="M416.001 103.383C411.532 103.383 408.18 100.463 408.18 95.9702C408.18 91.4775 411.532 88.5571 416.001 88.5571C420.469 88.5571 423.821 91.4775 423.821 95.9702C423.821 100.463 420.469 103.383 416.001 103.383ZM416.001 101.586C419.352 101.586 421.81 99.5643 421.81 95.9702C421.81 92.376 419.13 90.3543 416.001 90.3543C412.649 90.3543 410.191 92.376 410.191 95.9702C410.191 99.5643 412.649 101.586 416.001 101.586Z" fill="black"/>
<path d="M443.484 91.7028C441.696 90.5797 440.132 90.1304 437.676 90.1304C434.1 90.1304 433.206 91.2535 433.206 92.3767C433.206 93.7246 434.324 93.9493 435.888 94.1739L440.356 94.6232C443.261 95.0725 445.048 96.1956 445.048 98.6667C445.048 101.812 442.143 103.159 437.899 103.159C434.994 103.159 432.983 102.71 430.748 101.138L431.642 99.5651C433.653 100.913 435.441 101.362 438.122 101.362C441.026 101.362 442.814 100.464 442.814 98.6667C442.814 97.3188 441.92 96.6449 440.132 96.4202L435.664 95.9709C432.983 95.7463 431.195 94.6232 431.195 92.1521C431.195 89.2318 434.1 88.1086 437.676 88.1086C440.132 88.1086 442.367 88.3334 444.378 89.9058L443.484 91.7028Z" fill="black"/>
<path d="M164.627 60.7221C164.627 63.4178 163.062 64.7656 160.157 64.7656C157.476 64.7656 156.135 63.4178 156.135 60.7221V19.6137C156.135 17.1428 157.476 15.7949 160.157 15.7949C163.286 15.7949 164.85 17.1428 164.85 19.6137V60.7221H164.627Z" fill="black"/>
<path d="M248.865 15.7949C248.195 15.7949 247.748 15.7949 247.301 16.0195C247.077 16.0195 247.077 16.0195 246.854 16.0195C246.631 16.0195 246.407 16.2442 246.184 16.2442C245.96 16.2442 245.737 16.4688 245.513 16.4688L215.124 35.7875L184.96 16.6935C184.737 16.4688 184.513 16.4688 184.29 16.4688C184.066 16.4688 183.843 16.2442 183.619 16.2442C183.396 16.2442 183.396 16.2442 183.172 16.2442C182.502 15.7949 182.055 15.7949 181.385 15.7949C178.703 15.7949 177.362 17.1428 177.362 19.6137V60.7221C177.362 63.4178 178.703 64.7656 181.608 64.7656C184.513 64.7656 186.077 63.4178 186.077 60.7221V27.4759L213.115 44.5483C213.785 44.9976 214.454 45.2222 215.124 45.2222H215.348H215.571C216.242 45.2222 216.912 44.9976 217.582 44.5483L244.619 27.4759V60.7221C244.619 63.4178 246.184 64.7656 249.089 64.7656C251.77 64.7656 253.334 63.4178 253.334 60.7221V19.6137C252.887 17.1428 251.547 15.7949 248.865 15.7949Z" fill="black"/>
<path d="M397.007 15.7949C394.326 15.7949 392.985 17.1428 392.985 19.6137V52.186L346.732 16.9181C346.508 16.6935 346.061 16.4688 345.838 16.2442C345.391 16.0195 344.944 15.7949 344.497 15.7949C344.05 15.7949 343.603 15.7949 342.933 15.7949C340.253 15.7949 338.912 17.1428 338.912 19.6137V60.7221C338.912 63.4178 340.253 64.7656 343.156 64.7656C346.061 64.7656 347.626 63.4178 347.626 60.7221V28.3745L394.102 63.6425C394.326 63.8671 394.549 63.8671 394.773 64.0918C395.443 64.5411 396.337 64.7656 397.454 64.7656C400.359 64.7656 401.922 63.4178 401.922 60.7221V19.6137C401.699 17.1428 400.136 15.7949 397.007 15.7949Z" fill="black"/>
<path d="M453.315 15.7949H436.11C420.469 15.7949 412.648 20.2877 412.648 29.0484V60.4976C412.648 63.1932 413.989 64.5411 417.117 64.5411C420.022 64.5411 421.586 63.1932 421.586 60.4976V44.099H468.062V60.7221C468.062 63.4178 469.402 64.7656 472.531 64.7656C475.436 64.7656 477 63.4178 477 60.7221V29.2731C477 20.2877 469.179 15.7949 453.315 15.7949ZM421.586 36.9108V29.0484C421.586 25.0051 425.832 22.9833 433.652 22.9833H455.773C463.817 22.9833 467.838 25.0051 467.838 29.0484V36.6861H421.586V36.9108Z" fill="black"/>
<path d="M326.398 23.2079C327.963 23.2079 329.303 21.8602 329.303 20.2877V18.7153C329.303 17.1428 327.963 15.7949 326.398 15.7949H266.739C265.398 15.7949 264.504 16.6935 264.504 18.0412V49.4904C264.504 59.599 272.772 64.5411 289.307 64.5411H326.622C328.409 64.5411 329.75 63.1932 329.75 61.3962V60.0483C329.75 58.2513 328.409 56.9034 326.622 56.9034H287.072C278.135 56.9034 273.443 54.6571 273.443 50.3889V43.8745H317.908C319.473 43.8745 320.812 42.5266 320.812 40.9541V39.6064C320.812 38.034 319.473 36.6861 317.908 36.6861H273.219V23.2079H326.398Z" fill="black"/>
<g opacity="0.25">
<path opacity="0.25" d="M55.4354 55.7126C55.4354 55.7126 106.43 97.4973 109.008 100.082C111.587 102.666 111.587 106.831 109.008 109.415C106.43 112 102.276 112 99.6976 109.415C97.1192 106.831 55.4354 55.7126 55.4354 55.7126Z" fill="#D60B52"/>
<path opacity="0.25" d="M55.436 59.3022C55.436 59.3022 48.8468 100.943 48.8468 104.677C48.8468 108.266 51.8549 111.282 55.436 111.282C59.0171 111.282 62.0252 108.266 62.0252 104.677C62.1684 100.943 55.436 59.3022 55.436 59.3022Z" fill="#AE0E16"/>
<path opacity="0.25" d="M55.4354 55.7126C55.4354 55.7126 4.44076 97.4973 1.86238 100.082C-0.716008 102.666 -0.716008 106.831 1.86238 109.415C4.44076 112 8.59481 112 11.1732 109.415C13.7516 106.831 55.4354 55.7126 55.4354 55.7126Z" fill="#ED6B6A"/>
<path opacity="0.25" d="M54.4328 57.4358C54.4328 57.4358 26.7868 98.3589 25.2111 101.661C23.4922 104.964 24.7814 108.841 28.076 110.564C31.3706 112.287 35.2382 110.995 36.9571 107.692C38.5328 104.39 54.4328 57.4358 54.4328 57.4358Z" fill="#4CB4E7"/>
<path opacity="0.25" d="M56.5809 57.4358C56.5809 57.4358 84.2269 98.3589 85.8026 101.661C87.5215 104.964 86.2323 108.841 82.9377 110.564C79.6431 112.287 75.7755 110.995 74.0566 107.692C72.3377 104.39 56.5809 57.4358 56.5809 57.4358Z" fill="#4E55A2"/>
<path opacity="0.25" d="M55.436 51.9795C55.436 51.9795 48.8468 10.3385 48.8468 6.60513C48.8468 3.01538 51.8549 0 55.436 0C59.0171 0 62.0252 3.01538 62.0252 6.60513C62.1684 10.1949 55.436 51.9795 55.436 51.9795Z" fill="#0098AD"/>
<path opacity="0.25" d="M55.436 55.5702C55.436 55.5702 4.44137 13.7856 1.86299 11.201C-0.715397 8.61638 -0.715397 4.45228 1.86299 1.86767C4.44137 -0.716956 8.59542 -0.716956 11.1738 1.86767C13.7522 4.45228 55.436 55.5702 55.436 55.5702Z" fill="#FCEC45"/>
<path opacity="0.25" d="M55.4354 55.5695C55.4354 55.5695 106.43 13.7849 109.008 11.2003C111.587 8.61565 111.587 4.45155 109.008 1.86693C106.43 -0.717689 102.276 -0.717689 99.6976 1.86693C97.1192 4.45155 55.4354 55.5695 55.4354 55.5695Z" fill="#007787"/>
<path opacity="0.25" d="M54.4328 53.8474C54.4328 53.8474 26.7868 12.9242 25.2111 9.62164C23.4922 6.31908 24.7814 2.44215 28.076 0.719081C31.3706 -1.004 35.2382 0.288312 36.9571 3.59087C38.5328 6.89343 54.4328 53.8474 54.4328 53.8474Z" fill="#E71D73"/>
<path opacity="0.25" d="M56.5809 53.8474C56.5809 53.8474 84.2269 12.9242 85.8026 9.62164C87.5215 6.31908 86.2323 2.44215 82.9377 0.719081C79.6431 -1.004 75.7755 0.288312 74.0566 3.59087C72.3377 6.89343 56.5809 53.8474 56.5809 53.8474Z" fill="#951B81"/>
<path opacity="0.25" d="M59.1592 55.57C59.1592 55.57 100.7 62.1751 104.424 62.1751C108.005 62.1751 111.013 59.1597 111.013 55.57C111.013 51.9802 108.005 48.9648 104.424 48.9648C100.7 48.9648 59.1592 55.57 59.1592 55.57Z" fill="#A3195B"/>
<path opacity="0.25" d="M57.2972 56.718C57.2972 56.718 98.1216 84.4308 101.416 86.0103C104.711 87.7334 108.578 86.4411 110.297 83.1385C112.016 79.836 110.727 75.959 107.432 74.236C104.138 72.5129 57.2972 56.718 57.2972 56.718Z" fill="#FBBA00"/>
<path opacity="0.25" d="M57.8708 55.57C57.8708 55.57 76.3492 62.1751 79.9303 62.1751C83.5114 62.1751 86.5195 59.1597 86.5195 55.57C86.5195 51.9802 83.5114 48.9648 79.9303 48.9648C76.3492 48.9648 57.8708 55.57 57.8708 55.57Z" fill="#EC6608"/>
<path opacity="0.25" d="M57.2972 54.5646C57.2972 54.5646 98.1216 26.8518 101.416 25.2723C104.711 23.5492 108.578 24.8415 110.297 28.1441C112.016 31.4467 110.727 35.3236 107.432 37.0467C104.138 38.6262 57.2972 54.5646 57.2972 54.5646Z" fill="#CA9E67"/>
<path opacity="0.25" d="M51.8541 55.57C51.8541 55.57 10.3135 62.1751 6.58919 62.1751C3.00811 62.1751 0 59.1597 0 55.57C0 51.9802 3.00811 48.9648 6.58919 48.9648C10.1703 48.9648 51.8541 55.57 51.8541 55.57Z" fill="#E30613"/>
<path opacity="0.25" d="M53.144 55.57C53.144 55.57 34.6656 62.1751 31.0846 62.1751C27.5035 62.1751 24.4954 59.1597 24.4954 55.57C24.4954 51.9802 27.5035 48.9648 31.0846 48.9648C34.6656 48.9648 53.144 55.57 53.144 55.57Z" fill="#2FAC66"/>
<path opacity="0.25" d="M53.7172 56.718C53.7172 56.718 12.8928 84.4308 9.59819 86.0103C6.3036 87.7334 2.43603 86.4411 0.717116 83.1385C-1.0018 79.836 0.287387 75.959 3.58198 74.236C6.87657 72.5129 53.7172 56.718 53.7172 56.718Z" fill="#78C7C9"/>
<path opacity="0.25" d="M53.7172 54.5646C53.7172 54.5646 12.8928 26.8518 9.59819 25.2723C6.3036 23.5492 2.43603 24.8415 0.717116 28.1441C-1.0018 31.4467 0.287387 35.3236 3.58198 37.0467C6.87657 38.6262 53.7172 54.5646 53.7172 54.5646Z" fill="#31B7BC"/>
<path opacity="0.25" d="M52.5699 58.5842C52.5699 58.5842 28.9348 72.9432 26.3564 75.5278C23.778 78.1124 23.778 82.2765 26.3564 84.8612C28.9348 87.4458 33.0888 87.4458 35.6672 84.8612C38.2456 82.2765 52.5699 58.5842 52.5699 58.5842Z" fill="#ED6EA7"/>
<path opacity="0.25" d="M55.436 58.0107C55.436 58.0107 48.8468 76.5338 48.8468 80.1236C48.8468 83.7133 51.8549 86.7287 55.436 86.7287C59.0171 86.7287 62.0252 83.7133 62.0252 80.1236C62.1684 76.5338 55.436 58.0107 55.436 58.0107Z" fill="#004D88"/>
<path opacity="0.25" d="M58.3002 58.5842C58.3002 58.5842 81.9353 72.9432 84.5137 75.5278C87.0921 78.1124 87.0921 82.2765 84.5137 84.8612C81.9353 87.4458 77.7813 87.4458 75.2029 84.8612C72.6245 82.2765 58.3002 58.5842 58.3002 58.5842Z" fill="#3AAA35"/>
<path opacity="0.25" d="M52.5699 52.6971C52.5699 52.6971 28.9348 38.3381 26.3564 35.7535C23.778 33.1689 23.778 29.0048 26.3564 26.4202C28.9348 23.8355 33.0888 23.8355 35.6672 26.4202C38.2456 29.0048 52.5699 52.6971 52.5699 52.6971Z" fill="#2A6AB2"/>
<path opacity="0.25" d="M55.436 53.2726C55.436 53.2726 48.8468 34.7496 48.8468 31.1598C48.8468 27.5701 51.8549 24.5547 55.436 24.5547C59.0171 24.5547 62.0252 27.5701 62.0252 31.1598C62.1684 34.7496 55.436 53.2726 55.436 53.2726Z" fill="#E35197"/>
<path opacity="0.25" d="M58.3002 52.6971C58.3002 52.6971 81.9353 38.3381 84.5137 35.7535C87.0921 33.1689 87.0921 29.0048 84.5137 26.4202C81.9353 23.8355 77.7813 23.8355 75.2029 26.4202C72.6245 29.0048 58.3002 52.6971 58.3002 52.6971Z" fill="#95C11F"/>
</g>
<path d="M104.424 111.282C100.843 111.282 97.8348 108.266 97.8348 104.676C97.8348 101.087 100.843 98.0713 104.424 98.0713C108.005 98.0713 111.013 101.087 111.013 104.676C111.013 108.266 108.005 111.282 104.424 111.282Z" fill="#D60B52"/>
<path d="M6.58919 62.1736C3.00811 62.1736 0 59.1582 0 55.5685C0 51.9788 3.00811 48.9634 6.58919 48.9634C10.1703 48.9634 13.1784 51.9788 13.1784 55.5685C13.1784 59.3018 10.3135 62.1736 6.58919 62.1736Z" fill="#E30613"/>
<path d="M31.0832 62.1736C27.5021 62.1736 24.494 59.1582 24.494 55.5685C24.494 51.9788 27.5021 48.9634 31.0832 48.9634C34.6643 48.9634 37.6724 51.9788 37.6724 55.5685C37.6724 59.3018 34.6643 62.1736 31.0832 62.1736Z" fill="#2FAC66"/>
<path d="M79.93 62.1736C76.3489 62.1736 73.3408 59.1582 73.3408 55.5685C73.3408 51.9788 76.3489 48.9634 79.93 48.9634C83.5111 48.9634 86.5192 51.9788 86.5192 55.5685C86.5192 59.3018 83.5111 62.1736 79.93 62.1736Z" fill="#EC6608"/>
<path d="M104.424 62.1736C100.843 62.1736 97.8348 59.1582 97.8348 55.5685C97.8348 51.9788 100.843 48.9634 104.424 48.9634C108.005 48.9634 111.013 51.9788 111.013 55.5685C111.013 59.3018 108.005 62.1736 104.424 62.1736Z" fill="#A3195B"/>
<path d="M6.58919 37.7635C3.00811 37.7635 0 34.7481 0 31.1584C0 27.5686 3.00811 24.5532 6.58919 24.5532C10.1703 24.5532 13.1784 27.5686 13.1784 31.1584C13.1784 34.7481 10.3135 37.7635 6.58919 37.7635Z" fill="#31B7BC"/>
<path d="M31.0832 37.7635C27.5021 37.7635 24.494 34.7481 24.494 31.1584C24.494 27.5686 27.5021 24.5532 31.0832 24.5532C34.6643 24.5532 37.6724 27.5686 37.6724 31.1584C37.6724 34.7481 34.6643 37.7635 31.0832 37.7635Z" fill="#2A6AB2"/>
<path d="M104.424 37.7635C100.843 37.7635 97.8348 34.7481 97.8348 31.1584C97.8348 27.5686 100.843 24.5532 104.424 24.5532C108.005 24.5532 111.013 27.5686 111.013 31.1584C111.013 34.7481 108.005 37.7635 104.424 37.7635Z" fill="#CA9E67"/>
<path d="M6.58919 111.282C3.00811 111.282 0 108.266 0 104.676C0 101.087 3.00811 98.0713 6.58919 98.0713C10.1703 98.0713 13.1784 101.087 13.1784 104.676C13.1784 108.266 10.3135 111.282 6.58919 111.282Z" fill="#ED6B6A"/>
<path d="M31.0832 111.282C27.5021 111.282 24.494 108.266 24.494 104.676C24.494 101.087 27.5021 98.0713 31.0832 98.0713C34.6643 98.0713 37.6724 101.087 37.6724 104.676C37.6724 108.266 34.6643 111.282 31.0832 111.282Z" fill="#4CB4E7"/>
<path d="M55.4345 111.282C51.8534 111.282 48.8453 108.266 48.8453 104.676C48.8453 101.087 51.8534 98.0713 55.4345 98.0713C59.0156 98.0713 62.0237 101.087 62.0237 104.676C62.167 108.266 59.1589 111.282 55.4345 111.282Z" fill="#AE0E16"/>
<path d="M79.93 111.282C76.3489 111.282 73.3408 108.266 73.3408 104.676C73.3408 101.087 76.3489 98.0713 79.93 98.0713C83.5111 98.0713 86.5192 101.087 86.5192 104.676C86.5192 108.266 83.5111 111.282 79.93 111.282Z" fill="#4E55A2"/>
<path d="M6.58919 86.7283C3.00811 86.7283 0 83.7129 0 80.1232C0 76.5335 3.00811 73.5181 6.58919 73.5181C10.1703 73.5181 13.1784 76.5335 13.1784 80.1232C13.1784 83.7129 10.3135 86.7283 6.58919 86.7283Z" fill="#78C7C9"/>
<path d="M31.0832 86.7283C27.5021 86.7283 24.494 83.7129 24.494 80.1232C24.494 76.5335 27.5021 73.5181 31.0832 73.5181C34.6643 73.5181 37.6724 76.5335 37.6724 80.1232C37.6724 83.7129 34.6643 86.7283 31.0832 86.7283Z" fill="#ED6EA7"/>
<path d="M55.4345 86.7283C51.8534 86.7283 48.8453 83.7129 48.8453 80.1232C48.8453 76.5335 51.8534 73.5181 55.4345 73.5181C59.0156 73.5181 62.0237 76.5335 62.0237 80.1232C62.167 83.7129 59.1589 86.7283 55.4345 86.7283Z" fill="#004D88"/>
<path d="M79.93 86.7283C76.3489 86.7283 73.3408 83.7129 73.3408 80.1232C73.3408 76.5335 76.3489 73.5181 79.93 73.5181C83.5111 73.5181 86.5192 76.5335 86.5192 80.1232C86.5192 83.7129 83.5111 86.7283 79.93 86.7283Z" fill="#3AAA35"/>
<path d="M104.424 86.7283C100.843 86.7283 97.8348 83.7129 97.8348 80.1232C97.8348 76.5335 100.843 73.5181 104.424 73.5181C108.005 73.5181 111.013 76.5335 111.013 80.1232C111.013 83.7129 108.005 86.7283 104.424 86.7283Z" fill="#FBBA00"/>
<path d="M6.58919 13.2103C3.00811 13.2103 0 10.1949 0 6.60513C0 3.01538 3.00811 0 6.58919 0C10.1703 0 13.1784 3.01538 13.1784 6.60513C13.1784 10.1949 10.3135 13.2103 6.58919 13.2103Z" fill="#FCEC45"/>
<path d="M31.0832 13.2103C27.5021 13.2103 24.494 10.1949 24.494 6.60513C24.494 3.01538 27.5021 0 31.0832 0C34.6643 0 37.6724 3.01538 37.6724 6.60513C37.6724 10.1949 34.6643 13.2103 31.0832 13.2103Z" fill="#E71D73"/>
<path d="M55.4345 13.2103C51.8534 13.2103 48.8453 10.1949 48.8453 6.60513C48.8453 3.01538 51.8534 0 55.4345 0C59.0156 0 62.0237 3.01538 62.0237 6.60513C62.167 10.1949 59.1589 13.2103 55.4345 13.2103Z" fill="#0098AD"/>
<path d="M79.93 13.2103C76.3489 13.2103 73.3408 10.1949 73.3408 6.60513C73.3408 3.01538 76.3489 0 79.93 0C83.5111 0 86.5192 3.01538 86.5192 6.60513C86.5192 10.1949 83.5111 13.2103 79.93 13.2103Z" fill="#951B81"/>
<path d="M104.424 13.2103C100.843 13.2103 97.8348 10.1949 97.8348 6.60513C97.8348 3.01538 100.843 0 104.424 0C108.005 0 111.013 3.01538 111.013 6.60513C111.013 10.1949 108.005 13.2103 104.424 13.2103Z" fill="#007787"/>
<path d="M79.93 37.7635C76.3489 37.7635 73.3408 34.7481 73.3408 31.1584C73.3408 27.5686 76.3489 24.5532 79.93 24.5532C83.5111 24.5532 86.5192 27.5686 86.5192 31.1584C86.5192 34.7481 83.5111 37.7635 79.93 37.7635Z" fill="#95C11F"/>
<path d="M55.4345 62.1736C51.8534 62.1736 48.8453 59.1582 48.8453 55.5685C48.8453 51.9788 51.8534 48.9634 55.4345 48.9634C59.0156 48.9634 62.0237 51.9788 62.0237 55.5685C62.167 59.3018 59.1589 62.1736 55.4345 62.1736Z" fill="#FFED00"/>
<path d="M55.4345 37.7635C51.8534 37.7635 48.8453 34.7481 48.8453 31.1584C48.8453 27.5686 51.8534 24.5532 55.4345 24.5532C59.0156 24.5532 62.0237 27.5686 62.0237 31.1584C62.167 34.7481 59.1589 37.7635 55.4345 37.7635Z" fill="#E35197"/>
</g>
<defs>
<clipPath id="clip0">
<rect width="477" height="112" fill="white"/>
</clipPath>
</defs>
</svg>
