<svg width="356" height="116" viewBox="0 0 356 116" fill="none" xmlns="http://www.w3.org/2000/svg">
<g clip-path="url(#clip0)">
<path fill-rule="evenodd" clip-rule="evenodd" d="M76.2193 2.45351L95.0538 18.4729C101.454 23.9717 106.672 28.4953 113.137 33.9111C116.594 36.9408 118.226 41.091 117.432 44.8053L112.364 68.5438C110.688 76.6363 109.207 83.2143 107.531 91.3071C107.167 93.3188 106.274 95.2067 104.939 96.7904C103.605 98.3744 101.872 99.6011 99.9073 100.354L76.069 107.99L53.1327 115.336C51.7968 115.771 50.3974 115.996 48.9876 116C49.9112 110.875 50.985 104.649 51.3501 103.612C51.758 102.139 59.3607 92.635 60.5203 91.1618C62.668 88.4848 65.0517 86.0363 67.3713 83.6708C69.7071 81.2432 71.9634 78.7452 74.1361 76.1798C78.8155 70.9868 82.772 65.2245 85.9051 59.0399C86.9787 56.9026 88.4392 53.7695 89.7707 51.7775C90.286 50.9472 91.1451 50.3663 91.274 49.4949C90.8445 49.0384 90.6081 48.9552 90.2002 48.5817C90.9948 45.7806 93.2927 44.5771 94.6029 42.3565C95.2256 41.1116 95.462 39.161 95.9773 38.2896C96.7503 37.252 97.9102 36.5673 98.7693 35.592C98.7693 34.347 98.5974 34.8035 98.2108 34.0564C97.6739 33.1641 98.2966 33.3094 98.3611 32.4171C97.9744 31.7533 97.3733 31.0892 96.8364 30.4874C96.0631 29.8233 95.4404 29.4498 94.2163 29.5951C92.9922 29.7613 89.0619 30.3421 88.3747 30.7986C86.9145 31.7533 86.6781 34.8658 86.5278 36.9408C86.2915 39.7628 87.8165 39.991 85.7546 43.0206L79.3763 51.8604C78.6675 52.7319 73.0623 57.5667 71.516 58.8326L67.7579 62.609C64.1284 66.1574 64.4506 65.203 60.1337 69.9547L56.1392 73.2749C53.4549 75.3498 49.8254 77.4248 46.2173 77.7983C45.1434 77.9645 44.2202 77.8815 43.0602 78.1718C41.7716 78.5453 41.6001 78.9189 40.5907 79.3547C39.3021 79.9565 38.98 79.583 37.6698 79.8112C36.5317 79.9565 35.6082 80.4753 34.4485 80.0188C34.1477 78.4 35.3076 75.2875 35.8229 73.8766C36.2954 73.9596 37.3692 75.516 39.0444 71.8014C39.3666 71.0546 39.6027 70.1 39.4524 69.27C39.0658 68.2324 38.5288 68.3985 37.9061 67.6515C37.9061 65.348 38.0564 62.609 38.2067 60.3058C38.263 58.823 37.8098 57.3637 36.9181 56.1556C35.8442 54.7448 36.8323 54.5165 35.4363 53.7071C33.6753 52.8148 33.2244 51.6322 32.3009 50.8022C31.9142 50.4493 31.4418 50.304 31.1412 49.9928C30.4538 49.1628 31.2915 49.7022 30.1319 48.9552C29.2083 48.4364 28.2848 47.8555 27.1251 48.0008C26.2876 48.0632 26.2231 48.2914 25.7506 48.4364C25.0634 48.727 24.7627 48.5817 24.14 48.727C22.9802 48.9552 20.8327 50.5116 20.2743 50.7399C18.5991 51.6322 18.4488 50.5322 16.9884 53.4166C16.065 54.89 14.4543 57.3385 14.2825 59.1229C14.1321 60.4511 14.0677 61.3434 13.8959 62.6713C13.9818 63.4184 13.8314 66.1574 13.7455 66.5309L12.5214 66.7383C11.2973 70.017 12.908 71.6564 13.81 73.1296C14.6046 73.1296 14.218 73.0672 14.3684 73.0672C14.7549 72.9843 14.5187 72.922 14.9053 72.922C15.6784 73.7937 15.4421 74.6857 15.8287 75.8063C16.2153 77.1345 16.6878 77.6739 15.8287 79.1265C14.2825 82.1767 15.614 81.7411 10.1376 81.2844C7.83965 81.077 5.284 80.7659 2.98605 80.7659C1.83553 79.5038 0.983885 78.0144 0.490551 76.4017C-0.00278124 74.789 -0.125913 73.0916 0.12975 71.4282L5.21957 47.6896C6.91618 39.5969 8.37653 33.0188 10.0517 24.864C10.4166 22.8522 11.3089 20.9644 12.6436 19.3806C13.9783 17.7967 15.7107 16.5698 17.6757 15.8168L41.514 8.18064L64.4719 0.834973C68.7672 -0.721309 73.32 -0.0572956 76.2409 2.45351H76.2193Z" fill="#F46D0C"/>
<path d="M146.858 15.0023H137.033L132.611 36.9782H140.066L141.14 31.5784H144.962C151.754 31.5784 156.145 27.8426 156.145 22.2858C156.145 17.7022 152.797 15.0023 146.858 15.0023ZM145.341 25.8647H142.277L143.32 20.7161H145.815C147.521 20.7161 148.595 21.3754 148.595 22.9451C148.595 24.7973 147.395 25.8647 145.341 25.8647Z" fill="#2F3C61"/>
<path d="M177.828 20.5905L178.965 15.0023H160.991L156.568 36.9782H174.953L176.091 31.3902H165.003L165.571 28.5018H174.953L176.027 23.1648H166.677L167.182 20.5905H177.828Z" fill="#2F3C61"/>
<path d="M206.566 15.0023L203.376 31.2333H198.953L202.144 15.0023H194.815L191.624 31.2333H187.17L190.361 15.0023H183.032L178.609 36.9782H209.473L213.895 15.0023H206.566Z" fill="#2F3C61"/>
<path d="M233.183 15.0023L226.77 24.138L224.243 15.0023H216.535L221.811 30.0716C220.863 31.139 219.852 31.704 218.462 31.704C217.893 31.704 217.262 31.61 216.567 31.4215L214.198 36.6015C215.682 37.2293 217.135 37.5434 218.589 37.5434C222.127 37.5434 225.475 35.6282 228.318 31.7982L240.543 15.0023H233.183Z" fill="#2F3C61"/>
<path d="M261.428 15.0023H241.147L240.01 20.7475H246.391L243.201 36.9782H250.53L253.72 20.7475H260.291L261.428 15.0023Z" fill="#2F3C61"/>
<path d="M281.355 20.5905L282.492 15.0023H264.518L260.096 36.9782H278.481L279.618 31.3902H268.53L269.099 28.5018H278.481L279.555 23.1648H270.204L270.71 20.5905H281.355Z" fill="#2F3C61"/>
<path d="M294.456 37.4805C298.532 37.4805 301.818 36.382 304.503 33.1168L300.111 28.9414C298.594 30.7623 296.922 31.4844 295.182 31.4844C292.434 31.4844 290.634 29.7575 290.634 27.1833C290.634 23.259 293.099 20.4963 296.603 20.4963C298.626 20.4963 300.079 21.4381 301.027 23.0706L306.396 18.8952C304.786 16.0697 301.31 14.5 297.079 14.5C288.897 14.5 283.116 19.9312 283.116 27.6542C283.116 33.4936 287.602 37.4805 294.456 37.4805Z" fill="#2F3C61"/>
<path d="M329.586 15.0023H309.306L308.171 20.7475H314.549L311.36 36.9782H318.69L321.88 20.7475H328.451L329.586 15.0023Z" fill="#2F3C61"/>
<path d="M157.329 46.696L145.472 61.5264L139.321 46.696H131.551L125.886 74.6025H134.586L137.136 62.0446L141.506 72.0911H145.715L153.687 61.8851L151.178 74.6025H159.879L165.463 46.696H157.329Z" fill="#F46D0C"/>
<path d="M186.875 74.6025H196.385L189.667 46.696H180.278L162.23 74.6025H172.306L175.139 69.7389H185.944L186.875 74.6025ZM179.064 62.9616L183.233 55.8252L184.608 62.9616H179.064Z" fill="#F46D0C"/>
<path d="M231.131 46.696H220.367L214.296 53.6726L210.816 46.696H200.618L207.781 60.1709L194.427 74.6025H205.839L211.99 67.4264L215.511 74.6025H225.83L218.222 60.7289L231.131 46.696Z" fill="#F46D0C"/>
<path d="M227.942 74.6025H237.492L243.157 46.696H233.607L227.942 74.6025Z" fill="#F46D0C"/>
<path d="M274.343 46.696L262.486 61.5264L256.334 46.696H248.565L242.899 74.6025H251.6L254.149 62.0446L258.52 72.0911H262.728L270.7 61.8851L268.191 74.6025H276.892L282.477 46.696H274.343Z" fill="#F46D0C"/>
<path d="M296.603 75.2405C305.305 75.2405 310.444 70.8153 312.145 62.4433L315.34 46.696H305.953L302.877 61.8851C302.025 66.0709 300.528 67.6259 297.776 67.6259C295.349 67.6259 293.974 66.43 293.974 63.9183C293.974 63.3203 294.053 62.6426 294.216 61.8851L297.292 46.696H287.741L284.625 62.0446C284.423 63.081 284.302 64.0378 284.302 64.9948C284.302 71.2538 288.915 75.2405 296.603 75.2405Z" fill="#F46D0C"/>
<path d="M346.306 46.696L334.447 61.5264L328.296 46.696H320.528L314.862 74.6025H323.563L326.114 62.0446L330.482 72.0911H334.693L342.665 61.8851L340.155 74.6025H348.854L354.439 46.696H346.306Z" fill="#F46D0C"/>
<path d="M127.845 84.303L125.475 96.1466H128.183L130.079 86.5363H135.426L133.548 96.1466H136.256L138.625 84.303H127.845Z" fill="#2F3C61"/>
<path d="M145.302 96.3497C149.668 96.3497 152.63 93.2873 152.63 89.2435C152.63 86.1982 150.464 84.1001 146.859 84.1001C142.493 84.1001 139.531 87.1625 139.531 91.2063C139.531 94.2518 141.697 96.3497 145.302 96.3497ZM145.539 94.0149C143.457 94.0149 142.306 92.8137 142.306 91.054C142.306 88.5499 143.948 86.4349 146.622 86.4349C148.704 86.4349 149.854 87.6364 149.854 89.3958C149.854 91.8999 148.213 94.0149 145.539 94.0149Z" fill="#2F3C61"/>
<path d="M166.137 84.303H157.032L156.169 87.9068C155.39 91.223 154.375 93.8625 152.801 93.9133H152.446L151.498 98.6H154.036L154.527 96.1466H162.887L162.397 98.6H164.935L165.883 93.9133H164.208L166.137 84.303ZM158.487 88.3636L158.927 86.5363H162.972L161.5 93.9133H156.338C157.303 92.9151 157.912 90.817 158.487 88.3636Z" fill="#2F3C61"/>
<path d="M177.985 84.303H169.642L167.272 96.1466H169.98L171.858 86.5363H177.528L177.985 84.303Z" fill="#2F3C61"/>
<path d="M182.719 96.3497C187.085 96.3497 190.047 93.2873 190.047 89.2435C190.047 86.1982 187.881 84.1001 184.276 84.1001C179.91 84.1001 176.948 87.1625 176.948 91.2063C176.948 94.2518 179.114 96.3497 182.719 96.3497ZM182.956 94.0149C180.874 94.0149 179.723 92.8137 179.723 91.054C179.723 88.5499 181.365 86.4349 184.039 86.4349C186.121 86.4349 187.271 87.6364 187.271 89.3958C187.271 91.8999 185.63 94.0149 182.956 94.0149Z" fill="#2F3C61"/>
<path d="M202.213 84.303H191.941L191.5 86.5363H195.241L193.345 96.1466H196.053L197.948 86.5363H201.773L202.213 84.303Z" fill="#2F3C61"/>
<path d="M207.51 96.3497C211.876 96.3497 214.837 93.2873 214.837 89.2435C214.837 86.1982 212.671 84.1001 209.067 84.1001C204.7 84.1001 201.739 87.1625 201.739 91.2063C201.739 94.2518 203.905 96.3497 207.51 96.3497ZM207.746 94.0149C205.665 94.0149 204.514 92.8137 204.514 91.054C204.514 88.5499 206.156 86.4349 208.83 86.4349C210.911 86.4349 212.062 87.6364 212.062 89.3958C212.062 91.8999 210.42 94.0149 207.746 94.0149Z" fill="#2F3C61"/>
<path d="M225.629 90.0386C226.881 89.5143 227.744 88.499 227.744 87.0101C227.744 85.2675 226.323 84.303 223.767 84.303H218.047L215.678 96.1466H221.889C224.969 96.1466 227.22 94.9454 227.22 92.4073C227.22 91.2401 226.627 90.4449 225.629 90.0386ZM223.124 86.3672C224.224 86.3672 224.867 86.7056 224.867 87.484C224.867 88.5837 224.004 89.159 222.583 89.159H219.79L220.349 86.3672H223.124ZM222.058 94.0824H218.826L219.401 91.1554H222.718C223.801 91.1554 224.495 91.4938 224.495 92.3737C224.495 93.5073 223.564 94.0824 222.058 94.0824Z" fill="#2F3C61"/>
<path d="M241.819 84.303H238.739L234.66 89.0912H232.849L233.814 84.303H231.072L228.703 96.1466H231.445L232.409 91.3584H234.423L236.556 96.1466H239.5L236.725 90.1065L241.819 84.303Z" fill="#2F3C61"/>
<path d="M249.792 96.1466H252.534L249.623 84.303H246.915L239.249 96.1466H242.176L243.717 93.6088H249.234L249.792 96.1466ZM244.986 91.5277L247.778 86.9594L248.777 91.5277H244.986Z" fill="#2F3C61"/>
<path d="M272.03 84.303H268.95L264.872 89.0912H263.061L264.025 84.303H261.284L258.915 96.1466H261.656L262.621 91.3584H264.635L266.767 96.1466H269.712L266.936 90.1065L272.03 84.303Z" fill="#2F3C61"/>
<path d="M287.625 84.303H277.352L276.912 86.5363H280.652L278.757 96.1466H281.464L283.36 86.5363H287.185L287.625 84.303Z" fill="#2F3C61"/>
<path d="M297.841 86.5026L298.299 84.303H289.346L286.977 96.1466H296.148L296.606 93.9472H290.141L290.683 91.2061H296.201L296.624 89.0743H291.123L291.631 86.5026H297.841Z" fill="#2F3C61"/>
<path d="M304.526 96.3497C306.557 96.3497 308.281 95.7575 309.533 94.3026L307.911 92.6444C307.03 93.5918 305.965 94.0149 304.762 94.0149C302.629 94.0149 301.444 92.8306 301.444 91.0372C301.444 88.4823 303.172 86.4349 305.845 86.4349C307.149 86.4349 308.095 86.9256 308.705 87.8223L310.686 86.1982C309.84 84.8445 308.13 84.1001 306.032 84.1001C301.631 84.1001 298.669 87.1625 298.669 91.2063C298.669 94.2518 300.905 96.3497 304.526 96.3497Z" fill="#2F3C61"/>
<path d="M322.183 84.303H311.908L311.471 86.5363H315.209L313.315 96.1466H316.023L317.917 86.5363H321.742L322.183 84.303Z" fill="#2F3C61"/>
<path d="M330.146 96.1466H332.889L329.977 84.303H327.269L319.603 96.1466H322.53L324.071 93.6088H329.589L330.146 96.1466ZM325.34 91.5277L328.133 86.9594L329.131 91.5277H325.34Z" fill="#2F3C61"/>
<path d="M347.812 84.303L342.04 91.68L339.078 84.303H336.846L334.477 96.1466H337.03L338.454 89.0065L340.89 94.8947H342.125L346.659 89.0912L345.256 96.1466H347.812L350.164 84.303H347.812Z" fill="#2F3C61"/>
<path d="M336.797 37.5855C340.832 37.5855 343.724 34.874 343.724 30.9805C343.724 28.0798 341.573 26.0463 338.148 26.0463C334.109 26.0463 331.22 28.7577 331.22 32.6514C331.22 35.552 333.371 37.5855 336.797 37.5855ZM337.112 34.5747C335.761 34.5747 334.958 33.7076 334.958 32.4308C334.958 30.6177 336.012 29.0572 337.832 29.0572C339.183 29.0572 339.986 29.9243 339.986 31.2012C339.986 33.0139 338.933 34.5747 337.112 34.5747Z" fill="#2F3C61"/>
<path d="M355.665 26.2983H345.58L345.014 29.1832H348.186L346.601 37.3331H350.243L351.83 29.1832H355.098L355.665 26.2983Z" fill="#2F3C61"/>
</g>
<defs>
<clipPath id="clip0">
<rect width="356" height="116" fill="white"/>
</clipPath>
</defs>
</svg>
