<svg width="527" height="90" viewBox="0 0 527 90" fill="none" xmlns="http://www.w3.org/2000/svg">
<path d="M24.9037 83.9498V21.2572H0.270508V10.7159H61.4097V21.2572H36.6655V83.9498H24.9037Z" fill="#1A1A1A"/>
<path d="M225.634 29.4682H238.061L213.872 85.1703H209.877L192.789 48.8863L175.701 85.1703H171.707L147.518 29.4682H159.945L174.259 65.0865L190.792 28.2477H194.787L211.542 64.6427L225.634 29.4682Z" fill="#1A1A1A"/>
<path d="M255.857 83.9498V21.2572H231.224V10.7159H292.363V21.2572H267.619V83.9498H255.857Z" fill="#1A1A1A"/>
<path d="M322.002 29.4682V39.7876H318.451C313.717 39.7876 309.87 41.1191 306.911 43.7821C303.952 46.4452 302.473 50.1439 302.473 54.8782V83.9498H290.822V29.4682H301.696V36.5697C305.765 31.4655 311.054 28.9134 317.563 28.9134C319.043 28.9134 320.522 29.0984 322.002 29.4682Z" fill="#1A1A1A"/>
<path d="M325.22 61.0919V29.4682H336.76V61.9796C336.76 65.6783 337.906 68.6742 340.199 70.9674C342.493 73.2606 345.451 74.4072 349.076 74.4072C352.553 74.4072 355.401 73.2606 357.62 70.9674C359.913 68.6742 361.06 65.6783 361.06 61.9796V29.4682H372.711V61.0919C372.711 68.2674 370.455 74.0743 365.942 78.5127C361.504 82.9511 355.882 85.1703 349.076 85.1703C342.123 85.1703 336.39 82.9881 331.877 78.6237C327.439 74.1853 325.22 68.3414 325.22 61.0919Z" fill="#1A1A1A"/>
<path d="M378.959 56.6535C378.811 48.8863 381.622 42.1917 387.392 36.5697C393.162 30.8737 399.968 28.0997 407.809 28.2477C418.017 28.2477 425.674 32.4642 430.778 40.8972L422.567 47.3329C418.72 41.7848 413.838 39.0108 407.92 39.0108C403.038 39.0108 398.969 40.7122 395.714 44.115C392.459 47.5178 390.832 51.6973 390.832 56.6535C390.832 61.6837 392.459 65.9002 395.714 69.303C398.969 72.7058 403.038 74.4072 407.92 74.4072C413.69 74.4072 418.572 71.6702 422.567 66.1961L430.778 72.5209C428.337 76.5154 425.119 79.6223 421.124 81.8415C417.13 84.0608 412.691 85.1703 407.809 85.1703C399.746 85.1703 392.903 82.3963 387.281 76.8483C381.733 71.3003 378.959 64.5687 378.959 56.6535Z" fill="#1A1A1A"/>
<path d="M436.965 83.9498V0.729492H448.615V83.9498H436.965ZM462.707 53.4357L486.564 83.9498H472.583L448.948 53.3247L470.253 29.4682H484.678L462.707 53.4357Z" fill="#1A1A1A"/>
<path d="M484.367 74.6291L491.025 67.3057C495.981 72.4839 501.085 75.073 506.337 75.073C508.926 75.073 511.035 74.5551 512.662 73.5195C514.29 72.4099 515.103 70.8935 515.103 68.9701C515.103 67.4907 514.548 66.3071 513.439 65.4194C512.329 64.4577 510.332 63.3851 507.447 62.2015L501.899 59.8714C496.943 57.8001 493.318 55.5809 491.025 53.2138C488.806 50.7726 487.696 47.7027 487.696 44.004C487.696 39.1958 489.471 35.3861 493.022 32.5751C496.647 29.6902 501.27 28.2477 506.892 28.2477C514.733 28.2477 521.021 31.0587 525.755 36.6807L519.431 43.8931C515.88 40.1944 511.627 38.3451 506.67 38.3451C501.714 38.3451 499.236 40.0834 499.236 43.5602C499.236 44.8917 499.754 46.0383 500.789 47C501.825 47.8877 503.711 48.8863 506.448 49.9959L511.664 52.1042C516.916 54.3234 520.688 56.6905 522.981 59.2056C525.349 61.6468 526.532 64.7536 526.532 68.5263C526.532 73.7784 524.609 77.884 520.762 80.8429C516.916 83.7279 512.107 85.1703 506.337 85.1703C497.091 85.1703 489.767 81.6566 484.367 74.6291Z" fill="#1A1A1A"/>
<path d="M112.729 17.5121C100.958 13.9208 103.689 6.14929 103.537 3.78015H97.1836H90.8298C90.0086 30.1945 102.695 31.1305 108.623 35.469C134.038 54.0695 96.3767 84.6267 77.1426 59.7107C72.489 53.6824 70.9834 46.1148 66.6035 42.78C62.2236 39.4451 55.84 43.4673 57.2963 49.5779C62.1791 70.0662 72.8697 88.0399 98.4946 89.4678C123.816 90.8787 137.229 68.8174 138.598 52.0149C139.967 35.2125 124.5 21.1035 112.729 17.5121Z" fill="#9D4ACF"/>
</svg>
